<svg width="40" height="35" viewBox="0 0 40 35" fill="none" xmlns="http://www.w3.org/2000/svg">
<path d="M14.2188 0C12.1748 0 10.4795 1.40137 9.99414 3.29492C9.93945 3.29492 9.89844 3.28125 9.84375 3.28125C7.43066 3.28125 5.46875 5.24316 5.46875 7.65625C5.46875 7.98438 5.50977 8.30566 5.58496 8.61328C3.58887 9.43359 2.1875 11.3887 2.1875 13.6719C2.1875 14.5332 2.40625 15.333 2.75488 16.0576C1.11426 17.001 0 18.751 0 20.7812C0 23.0576 1.39453 25.0127 3.37695 25.833C3.31543 26.1475 3.28125 26.4687 3.28125 26.7969C3.28125 29.5176 5.48242 31.7188 8.20312 31.7188C8.4834 31.7188 8.75684 31.6846 9.02344 31.6367C9.67969 33.585 11.498 35 13.6719 35C16.3926 35 18.5938 32.7988 18.5938 30.0781V4.375C18.5938 1.96191 16.6318 0 14.2188 0ZM39.375 20.7812C39.375 18.751 38.2607 17.001 36.6201 16.0576C36.9756 15.333 37.1875 14.5332 37.1875 13.6719C37.1875 11.3887 35.7861 9.43359 33.79 8.61328C33.8584 8.30566 33.9062 7.98438 33.9062 7.65625C33.9062 5.24316 31.9443 3.28125 29.5312 3.28125C29.4766 3.28125 29.4287 3.29492 29.3809 3.29492C28.8955 1.40137 27.2002 0 25.1562 0C22.7432 0 20.7812 1.95508 20.7812 4.375V30.0781C20.7812 32.7988 22.9824 35 25.7031 35C27.877 35 29.6953 33.585 30.3516 31.6367C30.6182 31.6846 30.8916 31.7188 31.1719 31.7188C33.8926 31.7188 36.0938 29.5176 36.0938 26.7969C36.0938 26.4687 36.0596 26.1475 35.998 25.833C37.9805 25.0127 39.375 23.0576 39.375 20.7812Z" fill="#1099FF"/>
</svg>
