<svg width="35" height="35" viewBox="0 0 35 35" fill="none" xmlns="http://www.w3.org/2000/svg">
<path fill-rule="evenodd" clip-rule="evenodd" d="M20 2.5C20 1.83696 19.7366 1.20107 19.2678 0.732233C18.7989 0.263392 18.163 0 17.5 0C16.837 0 16.2011 0.263392 15.7322 0.732233C15.2634 1.20107 15 1.83696 15 2.5V19.1667C15 19.8297 15.2634 20.4656 15.7322 20.9344C16.2011 21.4033 16.837 21.6667 17.5 21.6667C18.163 21.6667 18.7989 21.4033 19.2678 20.9344C19.7366 20.4656 20 19.8297 20 19.1667V2.5ZM10.59 7.08333C10.8636 6.90156 11.0987 6.66768 11.2819 6.39505C11.4651 6.12242 11.5928 5.81637 11.6577 5.49439C11.7227 5.1724 11.7235 4.84078 11.6603 4.51845C11.597 4.19613 11.4709 3.88942 11.2892 3.61583C11.1074 3.34225 10.8735 3.10714 10.6009 2.92394C10.3283 2.74074 10.0222 2.61303 9.70022 2.54811C9.37824 2.48318 9.04661 2.48232 8.72429 2.54555C8.40197 2.60879 8.09526 2.7349 7.82167 2.91667C5.41519 4.51268 3.4414 6.6798 2.07655 9.22453C0.711709 11.7693 -0.00170888 14.6124 3.07379e-06 17.5C3.07379e-06 27.165 7.835 35 17.5 35C27.165 35 35 27.165 35 17.5C35 11.41 31.8883 6.05 27.1783 2.91667C26.6258 2.54978 25.9502 2.41742 25.3 2.5487C24.6499 2.67997 24.0786 3.06413 23.7117 3.61667C23.3448 4.1692 23.2124 4.84485 23.3437 5.49497C23.475 6.1451 23.8591 6.71645 24.4117 7.08333C26.6493 8.56774 28.3495 10.7333 29.2604 13.2593C30.1714 15.7853 30.2447 18.5375 29.4694 21.1084C28.6942 23.6793 27.1117 25.9323 24.9563 27.5337C22.8008 29.135 20.1869 29.9998 17.5017 29.9998C14.8164 29.9998 12.2026 29.135 10.0471 27.5337C7.8916 25.9323 6.3091 23.6793 5.53389 21.1084C4.75869 18.5375 4.83198 15.7853 5.74292 13.2593C6.65386 10.7333 8.35235 8.56774 10.59 7.08333Z" fill="#1099FF"/>
</svg>
