<svg width="18" height="35" viewBox="0 0 18 35" fill="none" xmlns="http://www.w3.org/2000/svg">
<path d="M0 0V3.5H1.75V28C1.75 29.8565 2.4875 31.637 3.80025 32.9497C5.11301 34.2625 6.89348 35 8.75 35C10.6065 35 12.387 34.2625 13.6997 32.9497C15.0125 31.637 15.75 29.8565 15.75 28V3.5H17.5V0H0ZM7 24.5C5.95 24.5 5.25 23.8 5.25 22.75C5.25 21.7 5.95 21 7 21C8.05 21 8.75 21.7 8.75 22.75C8.75 23.8 8.05 24.5 7 24.5ZM10.5 17.5C9.45 17.5 8.75 16.8 8.75 15.75C8.75 14.7 9.45 14 10.5 14C11.55 14 12.25 14.7 12.25 15.75C12.25 16.8 11.55 17.5 10.5 17.5ZM12.25 8.75H5.25V3.5H12.25V8.75Z" fill="#1099FF"/>
</svg>
