<svg width="36" height="35" viewBox="0 0 36 35" fill="none" xmlns="http://www.w3.org/2000/svg">
<path d="M0 17.5C0 9.24224 0 5.11512 2.56456 2.5488C4.62638 0.486987 7.6972 0.0823322 13.1049 0.00175162V3.59284C13.1049 4.56682 12.271 5.34109 11.4232 5.82282C9.82032 6.73023 8.69044 8.81131 8.69044 10.6524C8.69044 11.8229 9.15544 12.9455 9.98314 13.7732C10.8108 14.6009 11.9334 15.0659 13.104 15.0659C14.2745 15.0659 15.3971 14.6009 16.2248 13.7732C17.0525 12.9455 17.5175 11.8229 17.5175 10.6524C17.5175 11.8227 17.9824 12.9451 18.81 13.7726C19.6375 14.6002 20.7599 15.0651 21.9302 15.0651C23.1005 15.0651 24.2229 14.6002 25.0504 13.7726C25.8779 12.9451 26.3428 11.8227 26.3428 10.6524C26.3428 8.81131 25.2147 6.72848 23.6119 5.82282C22.764 5.34109 21.9302 4.56682 21.9302 3.59284V0C27.3396 0.0805806 30.4087 0.485235 32.4687 2.54705C35.035 5.11336 35.035 9.24224 35.035 17.5C35.035 25.7578 35.035 29.8866 32.4687 32.453C30.4174 34.5043 27.3641 34.9159 21.9967 34.9965V31.4877C21.9967 30.512 22.8306 29.7377 23.6784 29.2578C25.2813 28.3504 26.4094 26.2693 26.4094 24.4264C26.4094 23.2561 25.9445 22.1337 25.117 21.3062C24.2894 20.4787 23.1671 20.0138 21.9967 20.0138C20.8264 20.0138 19.7041 20.4787 18.8765 21.3062C18.049 22.1337 17.5841 23.2561 17.5841 24.4264C17.5841 23.2561 17.1192 22.1337 16.2916 21.3062C15.4641 20.4787 14.3417 20.0138 13.1714 20.0138C12.0011 20.0138 10.8787 20.4787 10.0512 21.3062C9.22366 22.1337 8.75876 23.2561 8.75876 24.4264C8.75876 26.2693 9.88689 28.3504 11.488 29.2578C12.3376 29.7377 13.1714 30.512 13.1714 31.4877V35C7.72172 34.9212 4.63513 34.5218 2.56456 32.453C0 29.8849 0 25.7578 0 17.5Z" fill="#1099FF"/>
</svg>
