<svg width="35" height="35" viewBox="0 0 35 35" fill="none" xmlns="http://www.w3.org/2000/svg">
<path d="M15.75 35V24.5H21.875C22.575 24.5 23.1875 24.7625 23.7125 25.2875C24.2375 25.8125 24.5 26.425 24.5 27.125V28.875C24.5 29.575 24.2375 30.1875 23.7125 30.7125C23.1875 31.2375 22.575 31.5 21.875 31.5H18.375V35H15.75ZM26.25 35V24.5H28.875V28H32.375V24.5H35V35H32.375V30.625H28.875V35H26.25ZM18.375 28.875H21.875V27.125H18.375V28.875ZM12.25 34.9125C8.69167 34.5042 5.76042 32.9729 3.45625 30.3188C1.15208 27.6646 0 24.4417 0 20.65C0 17.7333 1.15967 14.5617 3.479 11.1352C5.79833 7.70875 9.30533 3.997 14 0C18.6958 3.99583 22.2034 7.70758 24.5228 11.1352C26.8421 14.5629 28.0012 17.7345 28 20.65V21H15.75C14.7875 21 13.9638 21.343 13.279 22.029C12.5942 22.715 12.2512 23.5387 12.25 24.5V34.9125Z" fill="#1099FF"/>
</svg>
