<svg width="15" height="18" viewBox="0 0 15 18" fill="none" xmlns="http://www.w3.org/2000/svg">
<path fill-rule="evenodd" clip-rule="evenodd" d="M3.67494 0.528227C3.82089 0.208077 4.14613 0.00195312 4.50651 0.00195312H11.6934C12.3691 0.00195312 12.8097 0.69488 12.5069 1.28431L10.4627 5.26469H13.4881C14.2989 5.26469 14.7044 6.219 14.1314 6.77685L3.36231 17.2611C2.68299 17.9225 1.5514 17.2418 1.85592 16.355L4.15154 9.65031H0.909924C0.758335 9.6503 0.609149 9.61343 0.475915 9.54303C0.342682 9.47264 0.229624 9.37095 0.14701 9.24722C0.0643956 9.12348 0.0148423 8.98161 0.00285147 8.83449C-0.0091394 8.68737 0.016812 8.53967 0.0783483 8.40479L3.67494 0.528227Z" fill="#1099FF"/>
</svg>
