<svg width="30" height="30" viewBox="0 0 30 30" fill="none" xmlns="http://www.w3.org/2000/svg">
<path d="M13.5 30V21H18.75C19.35 21 19.875 21.225 20.325 21.675C20.775 22.125 21 22.65 21 23.25V24.75C21 25.35 20.775 25.875 20.325 26.325C19.875 26.775 19.35 27 18.75 27H15.75V30H13.5ZM22.5 30V21H24.75V24H27.75V21H30V30H27.75V26.25H24.75V30H22.5ZM15.75 24.75H18.75V23.25H15.75V24.75ZM10.5 29.925C7.45 29.575 4.9375 28.2625 2.9625 25.9875C0.9875 23.7125 0 20.95 0 17.7C0 15.2 0.994 12.4815 2.982 9.5445C4.97 6.6075 7.976 3.426 12 0C16.025 3.425 19.0315 6.6065 21.0195 9.5445C23.0075 12.4825 24.001 15.201 24 17.7V18H13.5C12.675 18 11.969 18.294 11.382 18.882C10.795 19.47 10.501 20.176 10.5 21V29.925Z" fill="#1099FF"/>
</svg>
