<svg width="34" height="30" viewBox="0 0 34 30" fill="none" xmlns="http://www.w3.org/2000/svg">
<path d="M12.1875 0C10.4355 0 8.98242 1.20117 8.56641 2.82422C8.51953 2.82422 8.48438 2.8125 8.4375 2.8125C6.36914 2.8125 4.6875 4.49414 4.6875 6.5625C4.6875 6.84375 4.72266 7.11914 4.78711 7.38281C3.07617 8.08594 1.875 9.76172 1.875 11.7188C1.875 12.457 2.0625 13.1426 2.36133 13.7637C0.955078 14.5723 0 16.0723 0 17.8125C0 19.7637 1.19531 21.4395 2.89453 22.1426C2.8418 22.4121 2.8125 22.6875 2.8125 22.9688C2.8125 25.3008 4.69922 27.1875 7.03125 27.1875C7.27148 27.1875 7.50586 27.1582 7.73438 27.1172C8.29688 28.7871 9.85547 30 11.7188 30C14.0508 30 15.9375 28.1133 15.9375 25.7812V3.75C15.9375 1.68164 14.2559 0 12.1875 0ZM33.75 17.8125C33.75 16.0723 32.7949 14.5723 31.3887 13.7637C31.6934 13.1426 31.875 12.457 31.875 11.7188C31.875 9.76172 30.6738 8.08594 28.9629 7.38281C29.0215 7.11914 29.0625 6.84375 29.0625 6.5625C29.0625 4.49414 27.3809 2.8125 25.3125 2.8125C25.2656 2.8125 25.2246 2.82422 25.1836 2.82422C24.7676 1.20117 23.3145 0 21.5625 0C19.4941 0 17.8125 1.67578 17.8125 3.75V25.7812C17.8125 28.1133 19.6992 30 22.0312 30C23.8945 30 25.4531 28.7871 26.0156 27.1172C26.2441 27.1582 26.4785 27.1875 26.7188 27.1875C29.0508 27.1875 30.9375 25.3008 30.9375 22.9688C30.9375 22.6875 30.9082 22.4121 30.8555 22.1426C32.5547 21.4395 33.75 19.7637 33.75 17.8125Z" fill="#1099FF"/>
</svg>
