<svg width="29" height="30" viewBox="0 0 29 30" fill="none" xmlns="http://www.w3.org/2000/svg">
<path d="M28.4657 1.90428L28.2843 0L26.4707 0.604534C23.3625 1.68445 20.0434 2.01584 16.783 1.57179C13.3571 1.04012 9.85042 1.51257 6.68732 2.93199C5.01046 3.64601 3.53884 4.76813 2.40643 6.19618C1.27402 7.62424 0.516791 9.31286 0.203693 11.1083C-0.202283 13.4277 0.000814707 15.8128 0.793114 18.0302C1.30327 16.8787 1.89942 15.7673 2.57649 14.7053C4.11231 12.4456 6.24039 10.6522 8.72762 9.52141C11.1238 8.42739 13.7428 7.90979 16.375 8.01008C13.8692 8.3932 11.4707 9.29393 9.33216 10.6549C8.30063 11.303 7.35598 12.0801 6.52107 12.9673C5.72258 13.854 5.01854 14.8214 4.42032 15.8539C3.29669 18.0121 2.49717 20.3241 2.04752 22.7154C1.56286 25.1144 1.29978 27.5528 1.26163 30H4.2843C4.42636 27.8053 4.72434 25.6235 5.17599 23.471C7.27286 24.6033 9.62438 25.1808 12.0072 25.1486C14.2296 25.1471 16.4291 24.7 18.4757 23.8338C29.977 18.9219 28.4657 2.58438 28.4657 1.90428Z" fill="#1099FF"/>
</svg>
