<svg width="15" height="30" viewBox="0 0 15 30" fill="none" xmlns="http://www.w3.org/2000/svg">
<path d="M0 0V3H1.5V24C1.5 25.5913 2.13214 27.1174 3.25736 28.2426C4.38258 29.3679 5.9087 30 7.5 30C9.0913 30 10.6174 29.3679 11.7426 28.2426C12.8679 27.1174 13.5 25.5913 13.5 24V3H15V0H0ZM6 21C5.1 21 4.5 20.4 4.5 19.5C4.5 18.6 5.1 18 6 18C6.9 18 7.5 18.6 7.5 19.5C7.5 20.4 6.9 21 6 21ZM9 15C8.1 15 7.5 14.4 7.5 13.5C7.5 12.6 8.1 12 9 12C9.9 12 10.5 12.6 10.5 13.5C10.5 14.4 9.9 15 9 15ZM10.5 7.5H4.5V3H10.5V7.5Z" fill="#1099FF"/>
</svg>
