<svg width="30" height="30" viewBox="0 0 30 30" fill="none" xmlns="http://www.w3.org/2000/svg">
<path d="M20.6061 14.2045L11.5152 5.11364V3.33333H10C9.57071 3.33333 9.21111 3.18838 8.92121 2.89848C8.63131 2.60859 8.48586 2.24848 8.48485 1.81818C8.48384 1.38788 8.62929 1.02828 8.92121 0.739394C9.21313 0.450505 9.57273 0.305051 10 0.30303H22.1212C22.5505 0.30303 22.9106 0.448485 23.2015 0.739394C23.4924 1.0303 23.6374 1.3899 23.6364 1.81818C23.6354 2.24646 23.4899 2.60657 23.2 2.89848C22.9101 3.1904 22.5505 3.33535 22.1212 3.33333H20.6061V14.2045ZM27.8788 30L25.4545 27.5758H5.45454C4.16667 27.5758 3.25151 27.0015 2.70909 25.853C2.16667 24.7045 2.29899 23.6374 3.10606 22.6515L10.9848 13.1061L0 2.12121L2.12121 0L30 27.8788L27.8788 30Z" fill="#1099FF"/>
</svg>
