<svg width="14" height="18" viewBox="0 0 14 18" fill="none" xmlns="http://www.w3.org/2000/svg">
<path d="M12.6726 8.20023C12.4426 7.90022 12.1626 7.64022 11.9026 7.38021C11.2326 6.78019 10.4726 6.35018 9.83254 5.72016C8.34249 4.26012 8.01248 1.85005 8.96251 0C8.01248 0.230007 7.18246 0.750022 6.47244 1.32004C3.88237 3.4001 2.86234 7.0702 4.08237 10.2203C4.12237 10.3203 4.16237 10.4203 4.16237 10.5503C4.16237 10.7703 4.01237 10.9703 3.81237 11.0503C3.58236 11.1503 3.34235 11.0903 3.15235 10.9303C3.09559 10.8828 3.04812 10.8251 3.01234 10.7603C1.88231 9.33027 1.7023 7.28021 2.46233 5.64016C0.792279 7.0002 -0.117747 9.30027 0.0122571 11.4703C0.0722588 11.9703 0.13226 12.4704 0.302265 12.9704C0.442269 13.5704 0.712277 14.1704 1.01229 14.7004C2.09232 16.4305 3.96237 17.6705 5.97243 17.9205C8.11249 18.1905 10.4026 17.8005 12.0426 16.3205C13.8727 14.6604 14.5127 12.0003 13.5726 9.72028L13.4426 9.46027C13.2326 9.00026 12.6726 8.20023 12.6726 8.20023ZM9.51253 14.5004C9.23252 14.7404 8.77251 15.0004 8.4125 15.1004C7.29246 15.5004 6.17243 14.9404 5.51241 14.2804C6.70245 14.0004 7.41247 13.1204 7.62247 12.2303C7.79248 11.4303 7.47247 10.7703 7.34247 10.0003C7.22246 9.26026 7.24246 8.63025 7.51247 7.94023C7.70248 8.32024 7.90248 8.70025 8.14249 9.00026C8.91251 10.0003 10.1225 10.4403 10.3826 11.8003C10.4226 11.9403 10.4426 12.0803 10.4426 12.2303C10.4726 13.0504 10.1125 13.9504 9.51253 14.5004Z" fill="#1099FF"/>
</svg>
