<svg width="44" height="34" viewBox="0 0 44 34" fill="none" xmlns="http://www.w3.org/2000/svg">
<rect width="44" height="34" fill="#F5F5F5"/>
<g id="Desktop - 4" clip-path="url(#clip0_0_1)">
<rect width="1440" height="6705" transform="translate(-767 -4765)" fill="white"/>
<g id="Group 14">
<rect id="Rectangle 25" x="-767" y="-209" width="1440" height="768" fill="#021C79"/>
<path id="&#226;&#128;&#156;" d="M12.7927 0L18.9367 4.864C14.8407 7.29601 10.4887 12.544 9.72067 16.896C9.97667 16.768 11.0007 16.64 11.8967 16.64C16.1207 16.64 19.4487 19.968 19.4487 24.704C19.4487 29.44 15.6087 33.408 10.7447 33.408C5.49667 33.408 0.888672 29.184 0.888672 21.76C0.888672 12.928 5.75267 4.992 12.7927 0ZM36.4727 0L42.6167 4.864C38.5207 7.29601 34.1687 12.544 33.4007 16.896C33.6567 16.768 34.6807 16.64 35.5767 16.64C39.8007 16.64 43.1287 19.968 43.1287 24.704C43.1287 29.44 39.2887 33.408 34.4247 33.408C29.1767 33.408 24.5687 29.184 24.5687 21.76C24.5687 12.928 29.4327 4.992 36.4727 0Z" fill="#1099FF"/>
</g>
</g>
<defs>
<clipPath id="clip0_0_1">
<rect width="1440" height="6705" fill="white" transform="translate(-767 -4765)"/>
</clipPath>
</defs>
</svg>
