<svg width="50" height="50" viewBox="0 0 50 50" fill="none" xmlns="http://www.w3.org/2000/svg">
<path d="M25.3346 49.9958H24.3846C23.2388 49.9958 22.1098 49.8208 20.9807 49.6292C20.9807 49.6292 20.9723 49.6292 20.9682 49.6292C9.60218 47.7751 0.852719 38.2466 0.0611011 26.8431C-0.776348 14.8563 7.07734 3.80283 18.5391 0.832176C30.3426 -2.22597 42.4085 3.33619 47.5249 14.3688C48.379 16.2104 48.8873 18.2061 49.4331 20.1893C49.7956 21.5101 49.9872 22.8683 49.9872 24.2391V24.814C49.9872 25.9723 49.8247 27.8514 49.6206 28.993V29.0055C48.2707 36.7841 44.2084 42.7879 37.3547 46.5877C35.0965 47.8376 32.5341 48.5376 30.0134 49.3042C28.4969 49.7667 26.922 50 25.3346 50V49.9958ZM37.3505 35.6884C36.7422 37.9132 35.1423 37.3216 33.4757 37.0133V44.8128C42.5543 41.6963 48.2956 30.8762 46.2583 20.5643C44.1792 10.0441 34.209 2.53207 23.3513 3.30286C12.6853 4.06115 3.89003 12.9731 3.31507 23.6099C2.80677 33.001 9.3647 43.3421 16.4184 44.6462V36.8633C14.5352 37.5508 13.1228 37.6799 12.7312 35.5675C18.9391 28.0763 31.9841 28.1097 37.3505 35.6884ZM18.8475 34.6968C18.8475 37.3549 18.7975 39.7423 18.86 42.1255C18.9349 45.0545 21.3265 47.3002 24.5013 47.5168C27.6136 47.7335 30.7092 45.8211 30.9925 43.0921C31.28 40.3548 31.055 37.5674 31.055 34.6718C29.3968 34.5093 27.9219 34.3635 26.2303 34.1968V40.4422H23.7138V34.176C22.0223 34.3551 20.5432 34.5134 18.8475 34.6926V34.6968Z" fill="#021C79"/>
<path d="M33.1266 19.7723C35.4015 21.1847 37.3638 22.4055 39.4804 23.7262C39.0804 24.4304 38.7221 25.0553 38.2804 25.8344C35.7098 24.2637 33.1641 22.8221 30.7601 21.1806C29.6226 20.4014 29.6185 19.1182 30.8142 18.3266C33.1933 16.7517 35.6806 15.3351 38.2554 13.7769C38.6971 14.4976 39.0679 15.1059 39.5262 15.8559C37.3763 17.1725 35.3598 18.4099 33.1308 19.7723H33.1266Z" fill="#021C79"/>
<path d="M11.7058 13.7646C14.2806 15.3396 16.6138 16.7311 18.9012 18.181C20.3261 19.0852 20.3761 20.5226 18.997 21.4017C16.6513 22.8933 14.2515 24.2973 11.7474 25.8139C11.31 25.1348 10.9308 24.539 10.4434 23.7807C12.5682 22.4683 14.5681 21.2267 16.8013 19.8476C14.6556 18.4852 12.6432 17.2103 10.4934 15.8479C10.9058 15.1396 11.2641 14.5271 11.7099 13.7646H11.7058Z" fill="#021C79"/>
</svg>
